# xmcd CD database file
#
# Track frame offsets:
#	150
#	11046
#	22526
#	32873
#	52785
#	61232
#
# Disc length: 1005 seconds
#
# Revision: 1
# Processed by: cddbd v1.5.2PL0 Copyright (c) Steve Scherf et al.
# Submitted via: CDex 1.70beta2
#
DISCID=3903eb06
DTITLE=Secret Swing Society - Secret Swing Society
DYEAR=2012
DGENRE=Jazz
TTITLE0=It don't mean a thing
TTITLE1=Blues a la S.S.S.
TTITLE2=Jeepers Creepers
TTITLE3=East St. Louis Toodle-o
TTITLE4=Tarte de la coque stomp
TTITLE5=Nevertheless I'm in love with you
EXTD=YEAR: 2012
EXTT0=
EXTT1=
EXTT2=
EXTT3=
EXTT4=
EXTT5=
PLAYORDER=
